<svg xmlns="http://www.w3.org/2000/svg" width="25" height="24" viewBox="0 0 25 24" fill="none"><path fill-rule="evenodd" clip-rule="evenodd" d="M12.4999 23.9747C14.0331 23.9747 15.5513 23.6727 16.9678 23.086C18.3844 22.4993 19.6714 21.6393 20.7556 20.5551C21.8397 19.471 22.6997 18.1839 23.2864 16.7674C23.8732 15.3509 24.1752 13.8327 24.1752 12.2995C24.1752 10.7663 23.8732 9.24808 23.2864 7.83158C22.6997 6.41507 21.8397 5.12801 20.7556 4.04386C19.6714 2.95972 18.3844 2.09973 16.9678 1.51299C15.5513 0.926256 14.0331 0.624268 12.4999 0.624268C9.40347 0.624268 6.43383 1.85433 4.2443 4.04386C2.05477 6.23339 0.824707 9.20303 0.824707 12.2995C0.824707 15.396 2.05477 18.3656 4.2443 20.5551C6.43383 22.7447 9.40347 23.9747 12.4999 23.9747ZM12.199 17.0215L18.6852 9.23799L16.6926 7.57751L11.1145 14.27L8.2281 11.3823L6.39379 13.2166L10.2855 17.1084L11.2896 18.1125L12.199 17.0215Z" fill="#3D754E"></path></svg>