<svg xmlns="http://www.w3.org/2000/svg" width="391" height="268" viewBox="0 0 391 268" fill="none"><path d="M13.049 159.353C19.7342 159.353 24.8544 160.543 28.4127 162.92C31.968 165.297 33.7471 168.995 33.7471 174.009C33.7471 177.138 33.0301 179.676 31.5931 181.628C30.1561 183.58 28.0884 185.109 25.3899 186.225C26.2884 187.34 27.2315 188.614 28.2193 190.051C29.2041 191.488 30.1799 192.987 31.1439 194.552C32.1078 196.117 33.039 197.744 33.9405 199.437C34.842 201.13 35.675 202.79 36.4485 204.421H25.2382C24.42 202.963 23.5929 201.484 22.7539 199.985C21.9149 198.485 21.0551 197.027 20.1745 195.614C19.2909 194.201 18.4191 192.862 17.5593 191.598C16.6995 190.333 15.8367 189.188 14.9769 188.158H10.0263V204.424H0V160.516C2.18673 160.088 4.44487 159.787 6.78334 159.615C9.11883 159.445 11.2074 159.359 13.052 159.359L13.049 159.353ZM13.6262 167.904C12.8973 167.904 12.2427 167.924 11.6656 167.969C11.0884 168.011 10.541 168.055 10.0263 168.097V180.182H12.8556C16.6281 180.182 19.3266 179.712 20.9569 178.769C22.5844 177.826 23.3995 176.219 23.3995 173.946C23.3995 171.673 22.5725 170.206 20.9242 169.284C19.273 168.362 16.8423 167.901 13.6292 167.901L13.6262 167.904Z" fill="white"></path><path d="M75.2806 159.868V168.419H61.8449V204.418H51.8157V168.419H38.3799V159.868H75.2806Z" fill="white"></path><path d="M93.8567 196.768C95.2699 196.768 96.4391 196.652 97.3614 196.414C98.2837 196.179 99.0216 195.858 99.5779 195.45C100.134 195.043 100.521 194.561 100.735 194.005C100.949 193.448 101.057 192.826 101.057 192.139C101.057 190.681 100.369 189.47 99.0008 188.506C97.6292 187.543 95.2729 186.504 91.9288 185.388C90.471 184.874 89.0132 184.285 87.5583 183.621C86.1005 182.958 84.7944 182.122 83.6371 181.113C82.4797 180.108 81.5366 178.885 80.8077 177.448C80.0788 176.014 79.7158 174.264 79.7158 172.209C79.7158 170.153 80.1026 168.299 80.8732 166.648C81.6437 165 82.7386 163.596 84.1518 162.438C85.565 161.281 87.2787 160.391 89.2958 159.769C91.31 159.148 93.58 158.838 96.1119 158.838C99.1108 158.838 101.705 159.16 103.889 159.802C106.076 160.445 107.876 161.153 109.289 161.923L106.397 169.831C105.153 169.189 103.77 168.621 102.25 168.127C100.726 167.636 98.8966 167.389 96.7515 167.389C94.3506 167.389 92.625 167.722 91.5778 168.386C90.5275 169.052 90.0039 170.069 90.0039 171.438C90.0039 172.253 90.1973 172.937 90.5811 173.494C90.9678 174.05 91.5123 174.556 92.2204 175.005C92.9285 175.454 93.7407 175.862 94.663 176.228C95.5853 176.594 96.6028 176.966 97.7155 177.353C100.03 178.209 102.044 179.057 103.758 179.89C105.472 180.726 106.897 181.702 108.033 182.815C109.167 183.931 110.015 185.237 110.574 186.736C111.13 188.236 111.41 190.059 111.41 192.202C111.41 196.358 109.952 199.583 107.04 201.877C104.124 204.171 99.7326 205.316 93.8597 205.316C91.8872 205.316 90.108 205.197 88.5252 204.962C86.9395 204.727 85.5352 204.435 84.3154 204.093C83.0926 203.751 82.0424 203.385 81.1647 203.001C80.2871 202.615 79.5462 202.252 78.9482 201.909L81.7776 193.939C83.1045 194.668 84.7438 195.323 86.6955 195.9C88.6443 196.477 91.0333 196.768 93.8627 196.768H93.8567Z" fill="white"></path><path d="M152.521 159.421C158.921 159.421 163.687 160.641 166.82 163.077C169.956 165.517 171.521 168.977 171.521 173.457C171.521 176.025 171.062 178.215 170.149 180.021C169.236 181.827 167.93 183.284 166.231 184.394C164.535 185.504 162.455 186.31 159.995 186.81C157.534 187.31 154.762 187.56 151.67 187.56H145.533V205.059H141.094V160.661C142.662 160.227 144.5 159.912 146.61 159.715C148.722 159.519 150.692 159.421 152.518 159.421H152.521ZM152.718 163.274C151.063 163.274 149.659 163.327 148.505 163.437C147.35 163.547 146.36 163.645 145.533 163.732V183.71H151.147C153.542 183.71 155.705 183.57 157.645 183.284C159.581 183.002 161.236 182.478 162.607 181.716C163.979 180.955 165.032 179.899 165.776 178.551C166.516 177.203 166.885 175.484 166.885 173.392C166.885 171.3 166.484 169.736 165.677 168.429C164.871 167.123 163.806 166.091 162.479 165.326C161.152 164.565 159.638 164.032 157.942 163.726C156.243 163.422 154.503 163.268 152.718 163.268V163.274Z" fill="white"></path><path d="M189.214 170.521C191.434 170.521 193.317 170.836 194.861 171.467C196.405 172.098 197.658 172.97 198.616 174.079C199.574 175.189 200.27 176.507 200.704 178.03C201.138 179.554 201.356 181.208 201.356 182.993V204.277C200.921 204.408 200.288 204.551 199.463 204.702C198.636 204.854 197.678 205.018 196.59 205.193C195.501 205.366 194.293 205.509 192.966 205.619C191.639 205.726 190.276 205.782 188.887 205.782C187.102 205.782 185.459 205.586 183.957 205.193C182.455 204.801 181.148 204.182 180.039 203.334C178.929 202.486 178.057 201.397 177.427 200.07C176.796 198.743 176.48 197.122 176.48 195.206C176.48 193.29 176.829 191.811 177.525 190.505C178.221 189.199 179.2 188.122 180.464 187.274C181.726 186.426 183.228 185.804 184.969 185.415C186.709 185.022 188.601 184.826 190.648 184.826C191.258 184.826 191.898 184.858 192.573 184.924C193.248 184.989 193.9 185.075 194.531 185.185C195.161 185.296 195.706 185.403 196.164 185.513C196.622 185.623 196.935 185.721 197.11 185.807V183.719C197.11 182.544 197.024 181.401 196.848 180.291C196.673 179.182 196.292 178.179 195.706 177.286C195.117 176.394 194.29 175.677 193.225 175.132C192.157 174.588 190.755 174.317 189.012 174.317C186.531 174.317 184.68 174.493 183.463 174.841C182.243 175.189 181.351 175.472 180.786 175.689L180.196 171.967C180.937 171.619 182.08 171.292 183.624 170.988C185.168 170.685 187.03 170.53 189.205 170.53L189.214 170.521ZM189.607 201.992C191.261 201.992 192.707 201.939 193.948 201.828C195.188 201.721 196.244 201.579 197.113 201.403V189.52C196.634 189.303 195.872 189.074 194.828 188.836C193.784 188.598 192.347 188.476 190.517 188.476C189.473 188.476 188.384 188.553 187.253 188.705C186.12 188.857 185.076 189.184 184.121 189.684C183.163 190.184 182.38 190.871 181.77 191.74C181.16 192.611 180.857 193.763 180.857 195.2C180.857 196.464 181.062 197.529 181.476 198.398C181.889 199.27 182.475 199.966 183.24 200.487C184.002 201.01 184.915 201.391 185.983 201.629C187.048 201.87 188.256 201.989 189.607 201.989V201.992Z" fill="white"></path><path d="M223.689 170.653C225.082 170.653 226.4 170.763 227.64 170.98C228.881 171.197 229.741 171.414 230.22 171.631L229.372 175.288C229.024 175.115 228.316 174.928 227.25 174.734C226.182 174.538 224.781 174.44 223.038 174.44C221.211 174.44 219.741 174.571 218.631 174.833C217.522 175.094 216.793 175.312 216.445 175.484V205.063H212.202V172.875C213.291 172.396 214.791 171.908 216.707 171.405C218.623 170.905 220.949 170.656 223.692 170.656L223.689 170.653Z" fill="white"></path><path d="M240.597 171.307H254.048V174.898H240.597V192.853C240.597 194.769 240.761 196.325 241.088 197.521C241.415 198.72 241.882 199.642 242.492 200.297C243.102 200.948 243.84 201.386 244.712 201.603C245.58 201.82 246.538 201.93 247.583 201.93C249.368 201.93 250.805 201.725 251.894 201.311C252.98 200.898 253.831 200.517 254.44 200.169L255.485 203.694C254.875 204.087 253.81 204.533 252.286 205.033C250.763 205.533 249.109 205.783 247.324 205.783C245.235 205.783 243.483 205.509 242.067 204.968C240.651 204.423 239.52 203.596 238.672 202.487C237.824 201.377 237.223 199.996 236.875 198.339C236.527 196.685 236.352 194.727 236.352 192.463V161.385L240.594 160.602V171.31L240.597 171.307Z" fill="white"></path><path d="M261.885 172.482C263.146 172.134 264.845 171.741 266.978 171.307C269.111 170.872 271.721 170.655 274.815 170.655C277.382 170.655 279.524 171.027 281.247 171.765C282.967 172.506 284.338 173.562 285.362 174.93C286.385 176.302 287.114 177.944 287.548 179.86C287.983 181.776 288.2 183.886 288.2 186.194V205.063H283.957V187.563C283.957 185.171 283.794 183.145 283.467 181.491C283.139 179.836 282.595 178.486 281.833 177.441C281.071 176.397 280.069 175.644 278.828 175.189C277.588 174.731 276.032 174.505 274.16 174.505C272.158 174.505 270.426 174.615 268.969 174.832C267.511 175.049 266.562 175.246 266.127 175.421V205.066H261.885V172.485V172.482Z" fill="white"></path><path d="M297.01 188.151C297.01 185.191 297.435 182.612 298.283 180.413C299.131 178.214 300.241 176.376 301.612 174.897C302.984 173.418 304.549 172.318 306.313 171.601C308.077 170.884 309.892 170.524 311.764 170.524C315.899 170.524 319.196 171.874 321.656 174.573C324.113 177.271 325.345 181.427 325.345 187.045C325.345 187.393 325.333 187.741 325.312 188.089C325.289 188.437 325.256 188.764 325.214 189.068H301.511C301.642 193.203 302.666 196.381 304.579 198.6C306.495 200.819 309.541 201.929 313.721 201.929C316.027 201.929 317.857 201.712 319.204 201.275C320.552 200.84 321.531 200.468 322.144 200.165L322.926 203.821C322.316 204.17 321.174 204.583 319.499 205.062C317.824 205.541 315.854 205.779 313.59 205.779C310.63 205.779 308.107 205.345 306.016 204.473C303.927 203.601 302.207 202.384 300.857 200.817C299.506 199.249 298.527 197.389 297.917 195.235C297.307 193.081 297.004 190.719 297.004 188.151H297.01ZM320.972 185.474C320.882 181.948 320.058 179.205 318.49 177.247C316.923 175.29 314.703 174.308 311.829 174.308C310.306 174.308 308.946 174.614 307.75 175.221C306.551 175.831 305.507 176.646 304.617 177.67C303.725 178.693 303.029 179.88 302.529 181.228C302.029 182.579 301.734 183.992 301.648 185.471H320.975L320.972 185.474Z" fill="white"></path><path d="M346.304 170.653C347.697 170.653 349.015 170.763 350.255 170.98C351.496 171.197 352.356 171.414 352.835 171.631L351.987 175.288C351.639 175.115 350.931 174.928 349.866 174.734C348.798 174.538 347.396 174.44 345.653 174.44C343.826 174.44 342.356 174.571 341.247 174.833C340.137 175.094 339.408 175.312 339.06 175.484V205.063H334.817V172.875C335.906 172.396 337.406 171.908 339.322 171.405C341.238 170.905 343.564 170.656 346.307 170.656L346.304 170.653Z" fill="white"></path><path d="M366.155 202.058C368.591 202.058 370.606 201.656 372.194 200.85C373.783 200.044 374.577 198.684 374.577 196.768C374.577 195.855 374.435 195.069 374.152 194.418C373.869 193.766 373.402 193.177 372.748 192.653C372.093 192.13 371.233 191.63 370.168 191.151C369.1 190.672 367.785 190.107 366.217 189.452C364.953 188.929 363.757 188.396 362.626 187.852C361.493 187.307 360.493 186.676 359.621 185.959C358.75 185.242 358.053 184.382 357.533 183.38C357.012 182.38 356.75 181.16 356.75 179.723C356.75 176.98 357.783 174.761 359.85 173.065C361.918 171.366 364.756 170.518 368.371 170.518C370.677 170.518 372.584 170.715 374.083 171.107C375.586 171.5 376.639 171.848 377.249 172.152L376.27 175.939C375.747 175.677 374.866 175.329 373.625 174.895C372.385 174.46 370.567 174.243 368.175 174.243C367.217 174.243 366.315 174.341 365.464 174.538C364.617 174.734 363.864 175.041 363.212 175.454C362.561 175.868 362.037 176.391 361.644 177.025C361.252 177.659 361.055 178.429 361.055 179.346C361.055 180.262 361.228 181.047 361.579 181.702C361.927 182.356 362.439 182.934 363.114 183.436C363.789 183.939 364.617 184.406 365.595 184.838C366.574 185.272 367.696 185.748 368.957 186.269C370.263 186.789 371.513 187.319 372.712 187.86C373.908 188.402 374.964 189.053 375.877 189.815C376.791 190.577 377.532 191.49 378.097 192.558C378.662 193.626 378.945 194.965 378.945 196.575C378.945 199.621 377.802 201.93 375.518 203.495C373.233 205.063 370.109 205.845 366.149 205.845C363.188 205.845 360.924 205.595 359.359 205.095C357.792 204.596 356.747 204.215 356.224 203.953L357.333 200.1C357.464 200.186 357.747 200.329 358.181 200.526C358.616 200.722 359.205 200.939 359.943 201.177C360.683 201.418 361.564 201.623 362.587 201.796C363.611 201.972 364.795 202.058 366.146 202.058H366.155Z" fill="white"></path><path d="M391 200.767C391 201.498 390.881 202.147 390.643 202.718C390.405 203.289 390.09 203.771 389.694 204.164C389.298 204.56 388.84 204.86 388.317 205.069C387.793 205.277 387.249 205.381 386.677 205.381C386.106 205.381 385.562 205.277 385.038 205.069C384.514 204.86 384.056 204.557 383.661 204.164C383.265 203.768 382.95 203.286 382.711 202.718C382.473 202.15 382.354 201.498 382.354 200.767C382.354 200.035 382.473 199.395 382.711 198.821C382.95 198.247 383.268 197.765 383.661 197.375C384.056 196.985 384.514 196.685 385.038 196.476C385.562 196.268 386.106 196.164 386.677 196.164C387.249 196.164 387.793 196.268 388.317 196.476C388.84 196.685 389.298 196.985 389.694 197.375C390.09 197.765 390.405 198.25 390.643 198.821C390.881 199.392 391 200.044 391 200.767ZM390.248 200.767C390.248 200.18 390.158 199.645 389.98 199.16C389.801 198.675 389.554 198.261 389.239 197.916C388.924 197.571 388.549 197.306 388.111 197.119C387.674 196.932 387.195 196.839 386.677 196.839C386.16 196.839 385.681 196.932 385.243 197.119C384.806 197.306 384.428 197.571 384.116 197.916C383.8 198.261 383.553 198.675 383.375 199.16C383.196 199.645 383.107 200.18 383.107 200.767C383.107 201.353 383.196 201.888 383.375 202.373C383.553 202.858 383.8 203.272 384.116 203.617C384.431 203.962 384.806 204.23 385.243 204.42C385.681 204.61 386.16 204.706 386.677 204.706C387.195 204.706 387.674 204.61 388.111 204.42C388.549 204.23 388.927 203.962 389.239 203.617C389.554 203.272 389.801 202.858 389.98 202.373C390.158 201.888 390.248 201.353 390.248 200.767ZM388.055 203.292C387.835 202.894 387.606 202.513 387.368 202.15C387.13 201.787 386.921 201.501 386.743 201.29C386.683 201.299 386.627 201.302 386.576 201.302H385.633V203.292H384.931V198.357C385.127 198.315 385.345 198.279 385.588 198.256C385.829 198.229 386.059 198.217 386.27 198.217C386.993 198.217 387.543 198.348 387.921 198.613C388.299 198.877 388.489 199.276 388.489 199.812C388.489 200.118 388.403 200.392 388.233 200.633C388.064 200.874 387.814 201.055 387.481 201.174C387.549 201.251 387.641 201.368 387.754 201.525C387.87 201.683 387.989 201.858 388.117 202.055C388.245 202.251 388.373 202.459 388.501 202.68C388.629 202.9 388.739 203.105 388.834 203.292H388.055ZM385.633 200.728H386.27C386.481 200.728 386.677 200.716 386.856 200.689C387.034 200.662 387.189 200.615 387.32 200.543C387.451 200.472 387.552 200.377 387.626 200.258C387.698 200.139 387.734 199.987 387.734 199.8C387.734 199.612 387.692 199.469 387.612 199.347C387.531 199.225 387.424 199.124 387.293 199.047C387.162 198.97 387.011 198.916 386.841 198.88C386.671 198.848 386.493 198.83 386.305 198.83C386.178 198.83 386.056 198.83 385.943 198.836C385.826 198.839 385.722 198.848 385.63 198.854V200.728H385.633Z" fill="white"></path><path d="M265.658 52.1985C266.483 52.8091 266.821 53.8796 266.498 54.854L240.708 132.311L240.43 133.15C240.104 134.127 239.186 134.782 238.157 134.774L237.319 134.769L152.865 134.177H152.414C151.384 134.166 150.473 133.499 150.163 132.516L150.041 132.127L124.506 51.7568L124.49 51.71C124.183 50.7434 124.539 49.6885 125.37 49.1038L194.393 0.506741L195.111 6.10352e-05L195.788 0.506741L229.256 25.4874L228.866 26.7242L195.111 2.93361L129.563 51.8997L154.999 128.229L234.704 127.668L260.025 48.0281L265.658 52.1959V52.1985Z" fill="white"></path><path d="M253.596 43.2736L229.18 116.472L228.899 117.316C228.574 118.293 227.653 118.948 226.619 118.938L225.789 118.93L164.386 118.338L163.928 118.332C162.898 118.322 161.992 117.652 161.685 116.669L161.565 116.288L143.153 57.8062L143.133 57.7439C142.828 56.7799 143.187 55.7328 144.018 55.1533L194.393 20.0833L194.427 20.0599C194.838 19.7715 195.387 19.7819 195.788 20.0833L224.22 41.3976L223.821 42.6526L195.114 22.5127L148.21 57.9362L166.518 112.385L223.176 111.839L246.582 38.0821L253.599 43.2736H253.596Z" fill="white"></path><path d="M239.207 32.6254L216.842 99.5201L216.558 100.372C216.23 101.355 215.301 102.009 214.265 101.994L213.453 101.981L176.732 101.388L176.253 101.381C175.225 101.365 174.324 100.689 174.022 99.7072C172.029 93.2217 165.069 70.6082 163.091 64.1773C162.797 63.2237 163.161 62.1921 163.989 61.6309L194.399 41.0415L194.451 41.0051C194.86 40.7271 195.401 40.7427 195.794 41.0415L218.828 58.4453L218.435 59.6847L195.133 43.4735L168.182 64.3825L178.845 95.4199L210.832 94.9028L232.195 27.4365L239.212 32.6254H239.207Z" fill="white"></path><path d="M7.37423 251.845L4.13712 222.116H6.02422L8.76778 249.044H8.94198L20.5985 222.116H22.805L25.4759 249.044H25.6501L37.3792 222.116H39.2954L26.1872 251.845H24.0533L21.2953 225.092H21.1356L9.46456 251.845H7.37423ZM45.6208 252.31C43.6079 252.31 41.9385 251.811 40.6127 250.815C39.2869 249.818 38.3627 248.453 37.8401 246.721C37.3175 244.989 37.2401 243.014 37.6078 240.798C37.9756 238.573 38.7111 236.589 39.8143 234.847C40.9175 233.105 42.2675 231.731 43.8643 230.724C45.4611 229.718 47.1837 229.214 49.0321 229.214C50.2805 229.214 51.4176 229.466 52.4434 229.969C53.4789 230.472 54.3499 231.193 55.0563 232.132C55.7628 233.061 56.2515 234.189 56.5225 235.514C56.7934 236.84 56.7934 238.331 56.5225 239.985L56.3192 241.089H38.6675L38.9433 239.477H54.8095C55.0805 237.871 55.0031 236.419 54.5773 235.122C54.1515 233.816 53.445 232.781 52.4579 232.016C51.4805 231.252 50.2805 230.869 48.8579 230.869C47.4063 230.869 46.0224 231.29 44.7063 232.132C43.3998 232.964 42.2772 234.077 41.3385 235.471C40.4095 236.864 39.7901 238.398 39.4804 240.073L39.3062 240.973C38.9966 242.889 39.0353 244.577 39.4224 246.039C39.8191 247.49 40.5546 248.627 41.6288 249.45C42.703 250.263 44.1063 250.669 45.8385 250.669C47.0482 250.669 48.1224 250.466 49.0611 250.06C50.0095 249.644 50.8127 249.14 51.4708 248.55C52.1386 247.96 52.6611 247.389 53.0386 246.837L54.5047 247.49C54.0595 248.235 53.4208 248.981 52.5886 249.726C51.7563 250.461 50.7547 251.076 49.5837 251.569C48.4127 252.063 47.0918 252.31 45.6208 252.31ZM66.506 252.324C65.2189 252.324 64.0818 252.068 63.0947 251.555C62.1172 251.042 61.3866 250.292 60.9027 249.305C60.4188 248.318 60.2882 247.118 60.5108 245.705C60.6753 244.776 60.9801 243.958 61.4253 243.252C61.8705 242.545 62.4801 241.935 63.2543 241.423C64.0285 240.91 64.9769 240.489 66.0995 240.16C67.2318 239.821 68.5528 239.56 70.0624 239.376C71.2237 239.24 72.2592 239.105 73.1689 238.969C74.0786 238.834 74.8141 238.626 75.3754 238.345C75.9367 238.064 76.2657 237.643 76.3625 237.082L76.5076 236.153C76.7786 234.537 76.5028 233.25 75.6802 232.292C74.8576 231.324 73.5463 230.84 71.7463 230.84C70.1592 230.84 68.7366 231.198 67.4786 231.914C66.2205 232.621 65.2818 233.516 64.6624 234.6L63.1237 233.976C63.7237 232.911 64.4834 232.026 65.4027 231.319C66.3318 230.613 67.3479 230.085 68.4511 229.737C69.564 229.389 70.6963 229.214 71.8479 229.214C72.8447 229.214 73.7737 229.355 74.635 229.635C75.4963 229.916 76.2318 230.342 76.8415 230.913C77.4609 231.484 77.9012 232.214 78.1625 233.105C78.4334 233.985 78.4625 235.04 78.2496 236.269L75.6657 251.845H73.8947L74.577 247.824H74.4463C73.9237 248.656 73.2657 249.416 72.4721 250.103C71.6883 250.781 70.7931 251.323 69.7866 251.729C68.7802 252.126 67.6866 252.324 66.506 252.324ZM66.8398 250.684C68.2334 250.684 69.5302 250.345 70.7302 249.668C71.9399 248.981 72.956 248.042 73.7786 246.852C74.6108 245.661 75.1479 244.311 75.3899 242.802L75.956 239.521C75.6947 239.714 75.3415 239.889 74.8963 240.043C74.4512 240.189 73.9528 240.319 73.4012 240.435C72.8592 240.542 72.2931 240.639 71.7028 240.726C71.1221 240.803 70.556 240.876 70.0044 240.943C68.3495 241.137 66.9802 241.437 65.8963 241.843C64.8124 242.24 63.9753 242.763 63.385 243.411C62.8043 244.06 62.4318 244.844 62.2672 245.763C62.0253 247.282 62.335 248.482 63.1963 249.363C64.0672 250.244 65.2818 250.684 66.8398 250.684ZM89.7972 222.116L84.8617 251.845H83.0907L88.0262 222.116H89.7972ZM103.791 229.548L103.515 231.131H93.7892L94.0505 229.548H103.791ZM98.2166 224.206H99.9731L96.2859 246.576C96.1311 247.485 96.1795 248.231 96.4311 248.811C96.6924 249.382 97.0843 249.808 97.6069 250.089C98.1392 250.36 98.744 250.495 99.4214 250.495C99.7214 250.495 99.9924 250.471 100.234 250.423C100.476 250.365 100.718 250.302 100.96 250.234L101.12 251.845C100.82 251.952 100.5 252.039 100.162 252.106C99.8231 252.174 99.4311 252.208 98.986 252.208C98.0569 252.208 97.215 252 96.4601 251.584C95.715 251.168 95.1488 250.563 94.7617 249.769C94.3843 248.976 94.2924 248.018 94.4859 246.895L98.2166 224.206ZM111.288 237.387L108.893 251.845H107.122L112.058 222.116H113.829L112.029 233.076H112.203C112.9 231.914 113.882 230.99 115.15 230.303C116.418 229.606 117.859 229.258 119.476 229.258C120.976 229.258 122.243 229.577 123.279 230.216C124.314 230.845 125.055 231.75 125.5 232.931C125.945 234.102 126.032 235.505 125.761 237.14L123.308 251.845H121.551L123.99 237.213C124.3 235.306 123.995 233.777 123.076 232.626C122.166 231.474 120.787 230.898 118.938 230.898C117.68 230.898 116.509 231.169 115.426 231.711C114.351 232.253 113.447 233.013 112.711 233.99C111.985 234.958 111.511 236.09 111.288 237.387ZM147.691 222.116H149.666L156.633 249.232H156.822L172.775 222.116H174.75L169.814 251.845H168.072L172.311 226.427H172.137L157.141 251.845H155.429L148.911 226.427H148.737L144.498 251.845H142.756L147.691 222.116ZM183.63 252.324C182.343 252.324 181.206 252.068 180.219 251.555C179.241 251.042 178.511 250.292 178.027 249.305C177.543 248.318 177.412 247.118 177.635 245.705C177.799 244.776 178.104 243.958 178.549 243.252C178.994 242.545 179.604 241.935 180.378 241.423C181.152 240.91 182.101 240.489 183.223 240.16C184.356 239.821 185.677 239.56 187.186 239.376C188.348 239.24 189.383 239.105 190.293 238.969C191.203 238.834 191.938 238.626 192.499 238.345C193.061 238.064 193.39 237.643 193.486 237.082L193.632 236.153C193.903 234.537 193.627 233.25 192.804 232.292C191.982 231.324 190.67 230.84 188.87 230.84C187.283 230.84 185.861 231.198 184.603 231.914C183.344 232.621 182.406 233.516 181.786 234.6L180.248 233.976C180.848 232.911 181.607 232.026 182.527 231.319C183.456 230.613 184.472 230.085 185.575 229.737C186.688 229.389 187.82 229.214 188.972 229.214C189.969 229.214 190.898 229.355 191.759 229.635C192.62 229.916 193.356 230.342 193.965 230.913C194.585 231.484 195.025 232.214 195.286 233.105C195.557 233.985 195.586 235.04 195.374 236.269L192.79 251.845H191.019L191.701 247.824H191.57C191.048 248.656 190.39 249.416 189.596 250.103C188.812 250.781 187.917 251.323 186.911 251.729C185.904 252.126 184.811 252.324 183.63 252.324ZM183.964 250.684C185.357 250.684 186.654 250.345 187.854 249.668C189.064 248.981 190.08 248.042 190.903 246.852C191.735 245.661 192.272 244.311 192.514 242.802L193.08 239.521C192.819 239.714 192.465 239.889 192.02 240.043C191.575 240.189 191.077 240.319 190.525 240.435C189.983 240.542 189.417 240.639 188.827 240.726C188.246 240.803 187.68 240.876 187.128 240.943C185.473 241.137 184.104 241.437 183.02 241.843C181.936 242.24 181.099 242.763 180.509 243.411C179.928 244.06 179.556 244.844 179.391 245.763C179.149 247.282 179.459 248.482 180.32 249.363C181.191 250.244 182.406 250.684 183.964 250.684ZM204.381 237.387L201.986 251.845H200.215L203.931 229.548H205.658L205.078 233.076H205.252C205.949 231.924 206.936 231 208.213 230.303C209.491 229.606 210.923 229.258 212.51 229.258C214 229.258 215.263 229.577 216.299 230.216C217.334 230.855 218.074 231.764 218.52 232.945C218.965 234.116 219.052 235.514 218.781 237.14L216.328 251.845H214.557L216.995 237.213C217.305 235.316 217.005 233.792 216.095 232.64C215.195 231.479 213.821 230.898 211.973 230.898C210.724 230.898 209.563 231.169 208.489 231.711C207.424 232.253 206.529 233.013 205.803 233.99C205.078 234.958 204.603 236.09 204.381 237.387ZM229.537 252.324C228.25 252.324 227.113 252.068 226.126 251.555C225.149 251.042 224.418 250.292 223.934 249.305C223.45 248.318 223.32 247.118 223.542 245.705C223.707 244.776 224.012 243.958 224.457 243.252C224.902 242.545 225.512 241.935 226.286 241.423C227.06 240.91 228.008 240.489 229.131 240.16C230.263 239.821 231.584 239.56 233.094 239.376C234.255 239.24 235.291 239.105 236.2 238.969C237.11 238.834 237.846 238.626 238.407 238.345C238.968 238.064 239.297 237.643 239.394 237.082L239.539 236.153C239.81 234.537 239.534 233.25 238.712 232.292C237.889 231.324 236.578 230.84 234.778 230.84C233.191 230.84 231.768 231.198 230.51 231.914C229.252 232.621 228.313 233.516 227.694 234.6L226.155 233.976C226.755 232.911 227.515 232.026 228.434 231.319C229.363 230.613 230.379 230.085 231.483 229.737C232.595 229.389 233.728 229.214 234.879 229.214C235.876 229.214 236.805 229.355 237.666 229.635C238.528 229.916 239.263 230.342 239.873 230.913C240.492 231.484 240.933 232.214 241.194 233.105C241.465 233.985 241.494 235.04 241.281 236.269L238.697 251.845H236.926L237.608 247.824H237.478C236.955 248.656 236.297 249.416 235.504 250.103C234.72 250.781 233.825 251.323 232.818 251.729C231.812 252.126 230.718 252.324 229.537 252.324ZM229.871 250.684C231.265 250.684 232.562 250.345 233.762 249.668C234.971 248.981 235.987 248.042 236.81 246.852C237.642 245.661 238.179 244.311 238.421 242.802L238.987 239.521C238.726 239.714 238.373 239.889 237.928 240.043C237.483 240.189 236.984 240.319 236.433 240.435C235.891 240.542 235.325 240.639 234.734 240.726C234.154 240.803 233.587 240.876 233.036 240.943C231.381 241.137 230.012 241.437 228.928 241.843C227.844 242.24 227.007 242.763 226.416 243.411C225.836 244.06 225.463 244.844 225.299 245.763C225.057 247.282 225.366 248.482 226.228 249.363C227.099 250.244 228.313 250.684 229.871 250.684ZM252.771 260.671C251.387 260.671 250.172 260.487 249.127 260.119C248.082 259.761 247.221 259.248 246.543 258.581C245.875 257.913 245.416 257.119 245.164 256.2L246.761 255.373C246.974 256.089 247.332 256.723 247.835 257.274C248.338 257.826 249.006 258.256 249.838 258.566C250.68 258.886 251.701 259.045 252.901 259.045C255.05 259.045 256.859 258.489 258.33 257.376C259.801 256.273 260.725 254.579 261.103 252.295L262.003 246.75H261.829C261.335 247.718 260.692 248.579 259.898 249.334C259.114 250.079 258.209 250.665 257.184 251.09C256.158 251.516 255.035 251.729 253.816 251.729C252.045 251.729 250.569 251.274 249.388 250.365C248.208 249.455 247.38 248.177 246.906 246.532C246.442 244.877 246.393 242.932 246.761 240.697C247.138 238.461 247.835 236.482 248.851 234.76C249.867 233.027 251.121 231.672 252.611 230.695C254.111 229.708 255.761 229.214 257.561 229.214C258.848 229.214 259.922 229.461 260.784 229.955C261.645 230.439 262.327 231.082 262.83 231.885C263.334 232.689 263.687 233.569 263.89 234.527H264.093L264.906 229.548H266.619L262.845 252.368C262.535 254.235 261.916 255.779 260.987 256.998C260.058 258.227 258.887 259.147 257.474 259.756C256.071 260.366 254.503 260.671 252.771 260.671ZM254.106 250.089C255.587 250.089 256.942 249.711 258.171 248.956C259.409 248.192 260.45 247.108 261.292 245.705C262.134 244.292 262.719 242.618 263.048 240.682C263.358 238.805 263.348 237.126 263.019 235.645C262.69 234.164 262.056 232.998 261.117 232.147C260.188 231.295 258.964 230.869 257.445 230.869C255.916 230.869 254.532 231.305 253.293 232.176C252.064 233.037 251.038 234.208 250.216 235.689C249.393 237.169 248.832 238.834 248.532 240.682C248.222 242.54 248.227 244.176 248.546 245.589C248.866 246.992 249.49 248.095 250.419 248.898C251.348 249.692 252.577 250.089 254.106 250.089ZM278.99 252.31C276.978 252.31 275.308 251.811 273.982 250.815C272.657 249.818 271.732 248.453 271.21 246.721C270.687 244.989 270.61 243.014 270.978 240.798C271.345 238.573 272.081 236.589 273.184 234.847C274.287 233.105 275.637 231.731 277.234 230.724C278.831 229.718 280.553 229.214 282.402 229.214C283.65 229.214 284.787 229.466 285.813 229.969C286.849 230.472 287.72 231.193 288.426 232.132C289.132 233.061 289.621 234.189 289.892 235.514C290.163 236.84 290.163 238.331 289.892 239.985L289.689 241.089H272.037L272.313 239.477H288.179C288.45 237.871 288.373 236.419 287.947 235.122C287.521 233.816 286.815 232.781 285.828 232.016C284.85 231.252 283.65 230.869 282.228 230.869C280.776 230.869 279.392 231.29 278.076 232.132C276.769 232.964 275.647 234.077 274.708 235.471C273.779 236.864 273.16 238.398 272.85 240.073L272.676 240.973C272.366 242.889 272.405 244.577 272.792 246.039C273.189 247.49 273.924 248.627 274.998 249.45C276.073 250.263 277.476 250.669 279.208 250.669C280.418 250.669 281.492 250.466 282.431 250.06C283.379 249.644 284.182 249.14 284.84 248.55C285.508 247.96 286.031 247.389 286.408 246.837L287.874 247.49C287.429 248.235 286.79 248.981 285.958 249.726C285.126 250.461 284.124 251.076 282.953 251.569C281.782 252.063 280.461 252.31 278.99 252.31ZM294.026 251.845L297.742 229.548H299.469L298.889 232.916H299.063C299.692 231.803 300.582 230.918 301.734 230.26C302.895 229.592 304.211 229.258 305.682 229.258C307.289 229.258 308.522 229.645 309.384 230.419C310.245 231.193 310.792 232.243 311.024 233.569H311.184C311.822 232.253 312.771 231.208 314.029 230.434C315.297 229.65 316.758 229.258 318.413 229.258C320.561 229.258 322.09 229.94 323 231.305C323.919 232.66 324.181 234.518 323.784 236.879L321.287 251.845H319.516L322.013 236.879C322.313 235.011 322.119 233.55 321.432 232.495C320.745 231.431 319.54 230.898 317.818 230.898C315.979 230.898 314.46 231.474 313.26 232.626C312.06 233.777 311.314 235.243 311.024 237.024L308.542 251.845H306.771L309.282 236.763C309.563 235.021 309.374 233.608 308.716 232.524C308.058 231.44 306.853 230.898 305.101 230.898C303.931 230.898 302.861 231.169 301.893 231.711C300.926 232.253 300.122 232.998 299.484 233.947C298.845 234.895 298.429 235.984 298.235 237.213L295.797 251.845H294.026ZM337.273 252.31C335.26 252.31 333.591 251.811 332.265 250.815C330.939 249.818 330.015 248.453 329.492 246.721C328.97 244.989 328.892 243.014 329.26 240.798C329.628 238.573 330.363 236.589 331.467 234.847C332.57 233.105 333.92 231.731 335.517 230.724C337.113 229.718 338.836 229.214 340.684 229.214C341.933 229.214 343.07 229.466 344.096 229.969C345.131 230.472 346.002 231.193 346.709 232.132C347.415 233.061 347.904 234.189 348.175 235.514C348.446 236.84 348.446 238.331 348.175 239.985L347.971 241.089H330.32L330.596 239.477H346.462C346.733 237.871 346.655 236.419 346.23 235.122C345.804 233.816 345.097 232.781 344.11 232.016C343.133 231.252 341.933 230.869 340.51 230.869C339.059 230.869 337.675 231.29 336.358 232.132C335.052 232.964 333.929 234.077 332.991 235.471C332.062 236.864 331.442 238.398 331.133 240.073L330.958 240.973C330.649 242.889 330.687 244.577 331.075 246.039C331.471 247.49 332.207 248.627 333.281 249.45C334.355 250.263 335.758 250.669 337.491 250.669C338.7 250.669 339.775 250.466 340.713 250.06C341.662 249.644 342.465 249.14 343.123 248.55C343.791 247.96 344.313 247.389 344.691 246.837L346.157 247.49C345.712 248.235 345.073 248.981 344.241 249.726C343.409 250.461 342.407 251.076 341.236 251.569C340.065 252.063 338.744 252.31 337.273 252.31ZM356.474 237.387L354.079 251.845H352.308L356.024 229.548H357.752L357.171 233.076H357.345C358.042 231.924 359.029 231 360.307 230.303C361.584 229.606 363.016 229.258 364.603 229.258C366.094 229.258 367.357 229.577 368.392 230.216C369.428 230.855 370.168 231.764 370.613 232.945C371.058 234.116 371.145 235.514 370.874 237.14L368.421 251.845H366.65L369.089 237.213C369.399 235.316 369.099 233.792 368.189 232.64C367.289 231.479 365.915 230.898 364.066 230.898C362.818 230.898 361.657 231.169 360.582 231.711C359.518 232.253 358.623 233.013 357.897 233.99C357.171 234.958 356.697 236.09 356.474 237.387ZM387.379 229.548L387.103 231.131H377.378L377.639 229.548H387.379ZM381.805 224.206H383.562L379.874 246.576C379.72 247.485 379.768 248.231 380.02 248.811C380.281 249.382 380.673 249.808 381.195 250.089C381.728 250.36 382.333 250.495 383.01 250.495C383.31 250.495 383.581 250.471 383.823 250.423C384.065 250.365 384.307 250.302 384.549 250.234L384.708 251.845C384.408 251.952 384.089 252.039 383.75 252.106C383.412 252.174 383.02 252.208 382.574 252.208C381.645 252.208 380.803 252 380.049 251.584C379.303 251.168 378.737 250.563 378.35 249.769C377.973 248.976 377.881 248.018 378.074 246.895L381.805 224.206Z" fill="white"></path></svg>