<svg xmlns="http://www.w3.org/2000/svg" width="37" height="36" viewBox="0 0 37 36" fill="none"><path d="M36.0053 14.2328C36.2156 14.3884 36.3018 14.6613 36.2196 14.9096L29.6468 34.65L29.5758 34.8639C29.4929 35.1129 29.2587 35.2798 28.9967 35.2778L28.7831 35.2765L7.25925 35.1255H7.1445C6.88183 35.1229 6.64967 34.9527 6.57073 34.7024L6.53956 34.603L0.0317763 14.1202L0.0277964 14.1083C-0.0504747 13.862 0.0403993 13.5931 0.251997 13.4441L17.8431 1.05882L18.0262 0.929688L18.1986 1.05882L26.7282 7.4253L26.6287 7.74051L18.0262 1.67732L1.3206 14.1567L7.80317 33.6097L28.1165 33.4667L34.5699 13.17L36.0053 14.2321V14.2328Z" fill="white"></path><path d="M32.9314 11.9584L26.7089 30.6135L26.6372 30.8287C26.5543 31.0777 26.3195 31.2446 26.0562 31.2419L25.8446 31.2399L10.1957 31.0889L10.0789 31.0876C9.81625 31.085 9.58542 30.9141 9.50715 30.6638L9.47663 30.5665L4.78435 15.6621L4.77904 15.6462C4.70143 15.4005 4.79297 15.1337 5.00457 14.986L17.843 6.04817L17.8516 6.04221C17.9564 5.9687 18.0964 5.97135 18.1986 6.04817L25.4446 11.4803L25.3431 11.8001L18.0268 6.66733L6.07317 15.6952L10.7389 29.5718L25.1786 29.4328L31.1438 10.6353L32.9321 11.9584H32.9314Z" fill="white"></path><path d="M29.2639 9.24431L23.5641 26.2929L23.4918 26.5101C23.4082 26.7604 23.1714 26.9273 22.9074 26.9233L22.7004 26.92L13.3417 26.769L13.2197 26.767C12.9577 26.7631 12.7282 26.5909 12.6512 26.3406C12.1431 24.6877 10.3694 18.9245 9.86529 17.2855C9.79034 17.0425 9.8832 16.7796 10.0941 16.6365L17.8443 11.3892L17.8576 11.3799C17.9617 11.3091 18.0997 11.313 18.1998 11.3892L24.0702 15.8247L23.97 16.1406L18.0314 12.009L11.1627 17.3378L13.8803 25.2479L22.0325 25.1161L27.477 7.92188L29.2653 9.24431H29.2639Z" fill="white"></path></svg>