<svg xmlns="http://www.w3.org/2000/svg" width="489" height="472" viewBox="0 0 489 472" fill="none"><path d="M13.4105 187.84L245.5 19.2176L477.589 187.84L388.939 460.678H102.061L13.4105 187.84Z" stroke="white"></path><circle cx="475.278" cy="188.877" r="13.1873" fill="#3D754E"></circle><circle cx="245.007" cy="18.6006" r="18.542" fill="#63AF79"></circle><circle cx="15.7227" cy="188.877" r="7.5" fill="#3D754E"></circle><g opacity="0.1"><path d="M364.84 237.415C366.244 238.454 366.819 240.275 366.27 241.932L322.4 373.689L321.927 375.117C321.373 376.778 319.811 377.892 318.062 377.879L316.636 377.87L172.976 376.862H172.21C170.457 376.845 168.907 375.709 168.38 374.038L168.172 373.375L124.737 236.664L124.71 236.584C124.188 234.94 124.794 233.145 126.206 232.151L243.617 149.486L244.839 148.624L245.99 149.486L302.921 191.979L302.256 194.083L244.839 153.614L133.339 236.907L176.606 366.745L312.187 365.791L355.26 230.321L364.84 237.411V237.415Z" fill="white"></path><path d="M344.325 222.235L302.792 346.747L302.314 348.184C301.761 349.845 300.194 350.959 298.436 350.942L297.024 350.928L192.576 349.921L191.796 349.912C190.043 349.894 188.503 348.754 187.98 347.083L187.777 346.433L156.458 246.955L156.423 246.849C155.905 245.209 156.516 243.428 157.928 242.442L243.618 182.787L243.675 182.747C244.375 182.257 245.309 182.274 245.991 182.787L294.354 219.043L293.677 221.178L244.844 186.92L165.06 247.176L196.202 339.795L292.579 338.866L332.393 213.404L344.329 222.235H344.325Z" fill="white"></path><path d="M319.846 204.121L281.803 317.911L281.32 319.361C280.762 321.032 279.182 322.146 277.42 322.119L276.038 322.097L213.574 321.089L212.759 321.076C211.011 321.049 209.479 319.9 208.965 318.23C205.574 307.198 193.735 268.731 190.371 257.792C189.87 256.17 190.49 254.415 191.898 253.461L243.626 218.437L243.715 218.376C244.41 217.903 245.331 217.929 245.999 218.437L285.181 248.042L284.512 250.15L244.875 222.574L199.03 258.141L217.169 310.937L271.58 310.057L307.919 195.295L319.855 204.121H319.846Z" fill="white"></path></g><circle cx="387.392" cy="457.842" r="13.1873" fill="#3D754E"></circle><circle cx="101.22" cy="457.842" r="13.1873" fill="#3D754E"></circle><circle cx="14.0359" cy="188.877" r="13.1873" fill="#3D754E"></circle><path d="M472.02 194.877V183.257H473.68V194.877H472.02ZM477.159 194.877V183.257H478.819V194.877H477.159Z" fill="white"></path><path d="M381.427 463.842V452.222H383.087V463.842H381.427ZM386.566 463.842V452.222H388.226V463.842H386.566ZM391.705 463.842V452.222H393.365V463.842H391.705Z" fill="white"></path><path d="M94.5422 463.842V452.222H96.2022V463.842H94.5422ZM102.921 463.842L97.808 452.222H99.6007L104.298 462.945H103.269L108 452.222H109.66L104.564 463.842H102.921Z" fill="white"></path><path d="M12.7235 194.877L7.61073 183.257H9.40351L14.1012 193.981H13.0721L17.803 183.257H19.463L14.3668 194.877H12.7235Z" fill="white"></path><path d="M243.75 24.5996V12.9798H245.41V24.5996H243.75Z" fill="white"></path></svg>